<svg width="62" height="29" viewBox="0 0 62 29" fill="none" xmlns="http://www.w3.org/2000/svg">
<path d="M0.432 3.268C0.648 2.692 1.152 2.404 1.944 2.404C2.184 2.404 2.4 2.452 2.592 2.548C3.408 4.348 4.344 6.88 5.4 10.144C6.456 13.408 7.524 16.456 8.604 19.288C9.708 22.12 10.932 24.508 12.276 26.452C13.596 26.068 15.012 23.056 16.524 17.416C17.148 15.088 17.784 12.772 18.432 10.468C19.08 8.164 19.812 6.22 20.628 4.636C21.444 3.052 22.284 2.26 23.148 2.26C23.484 2.26 23.844 2.356 24.228 2.548C23.604 3.148 22.944 4.48 22.248 6.544C21.552 8.608 20.868 10.864 20.196 13.312C19.524 15.736 18.804 18.148 18.036 20.548C17.292 22.924 16.392 24.904 15.336 26.488C14.304 28.072 13.2 28.864 12.024 28.864C10.392 28.864 8.52 26.104 6.408 20.584C5.28 17.704 4.428 15.436 3.852 13.78C3.276 12.1 2.604 10.072 1.836 7.696C1.092 5.296 0.624 3.82 0.432 3.268Z" fill="#D9B90F"/>
<path d="M34.348 12.672C34.348 8.784 34.144 5.232 33.736 2.016C33.736 1.512 34.084 1.26 34.78 1.26C35.476 1.26 36.4 1.932 37.552 3.276C38.704 4.596 39.808 6.048 40.864 7.632C41.92 9.216 42.976 10.68 44.032 12.024C45.112 13.344 45.88 14.004 46.336 14.004C46.792 14.004 47.524 13.308 48.532 11.916C49.564 10.5 50.572 8.964 51.556 7.308C52.564 5.628 53.644 4.092 54.796 2.7C55.972 1.284 56.908 0.575999 57.604 0.575999C58.324 0.575999 58.684 0.767999 58.684 1.152C58.9 4.104 59.008 6.744 59.008 9.072C59.008 11.4 58.996 13.296 58.972 14.76C58.948 16.2 58.924 17.256 58.9 17.928C58.9 18.576 58.864 20.076 58.792 22.428C58.72 24.756 58.684 26.124 58.684 26.532C58.324 27.036 57.832 27.288 57.208 27.288C56.944 27.288 56.692 27.216 56.452 27.072C56.308 24.12 56.236 20.64 56.236 16.632C56.236 12.624 56.272 8.472 56.344 4.176C55.864 4.56 55.18 5.46 54.292 6.876C53.428 8.268 52.588 9.66 51.772 11.052C50.956 12.42 50.032 13.668 49 14.796C47.968 15.9 47.008 16.452 46.12 16.452C45.232 16.452 44.212 15.804 43.06 14.508C41.932 13.212 40.672 11.46 39.28 9.252C37.912 7.02 37.012 5.628 36.58 5.076C36.7 7.092 36.76 9.192 36.76 11.376C36.76 13.536 36.748 15.048 36.724 15.912C36.7 19.752 36.628 23.244 36.508 26.388C36.124 26.892 35.524 27.144 34.708 27.144C34.492 27.144 34.288 27.108 34.096 27.036C34.096 27.036 34.18 22.248 34.348 12.672Z" fill="#D9B90F"/>
<path d="M2.432 2.268C2.648 1.692 3.152 1.404 3.944 1.404C4.184 1.404 4.4 1.452 4.592 1.548C5.408 3.348 6.344 5.88 7.4 9.144C8.456 12.408 9.524 15.456 10.604 18.288C11.708 21.12 12.932 23.508 14.276 25.452C15.596 25.068 17.012 22.056 18.524 16.416C19.148 14.088 19.784 11.772 20.432 9.468C21.08 7.164 21.812 5.22 22.628 3.636C23.444 2.052 24.284 1.26 25.148 1.26C25.484 1.26 25.844 1.356 26.228 1.548C25.604 2.148 24.944 3.48 24.248 5.544C23.552 7.608 22.868 9.864 22.196 12.312C21.524 14.736 20.804 17.148 20.036 19.548C19.292 21.924 18.392 23.904 17.336 25.488C16.304 27.072 15.2 27.864 14.024 27.864C12.392 27.864 10.52 25.104 8.408 19.584C7.28 16.704 6.428 14.436 5.852 12.78C5.276 11.1 4.604 9.072 3.836 6.696C3.092 4.296 2.624 2.82 2.432 2.268Z" fill="black"/>
<path d="M36.348 12.672C36.348 8.784 36.144 5.232 35.736 2.016C35.736 1.512 36.084 1.26 36.78 1.26C37.476 1.26 38.4 1.932 39.552 3.276C40.704 4.596 41.808 6.048 42.864 7.632C43.92 9.216 44.976 10.68 46.032 12.024C47.112 13.344 47.88 14.004 48.336 14.004C48.792 14.004 49.524 13.308 50.532 11.916C51.564 10.5 52.572 8.964 53.556 7.308C54.564 5.628 55.644 4.092 56.796 2.7C57.972 1.284 58.908 0.575999 59.604 0.575999C60.324 0.575999 60.684 0.767999 60.684 1.152C60.9 4.104 61.008 6.744 61.008 9.072C61.008 11.4 60.996 13.296 60.972 14.76C60.948 16.2 60.924 17.256 60.9 17.928C60.9 18.576 60.864 20.076 60.792 22.428C60.72 24.756 60.684 26.124 60.684 26.532C60.324 27.036 59.832 27.288 59.208 27.288C58.944 27.288 58.692 27.216 58.452 27.072C58.308 24.12 58.236 20.64 58.236 16.632C58.236 12.624 58.272 8.472 58.344 4.176C57.864 4.56 57.18 5.46 56.292 6.876C55.428 8.268 54.588 9.66 53.772 11.052C52.956 12.42 52.032 13.668 51 14.796C49.968 15.9 49.008 16.452 48.12 16.452C47.232 16.452 46.212 15.804 45.06 14.508C43.932 13.212 42.672 11.46 41.28 9.252C39.912 7.02 39.012 5.628 38.58 5.076C38.7 7.092 38.76 9.192 38.76 11.376C38.76 13.536 38.748 15.048 38.724 15.912C38.7 19.752 38.628 23.244 38.508 26.388C38.124 26.892 37.524 27.144 36.708 27.144C36.492 27.144 36.288 27.108 36.096 27.036C36.096 27.036 36.18 22.248 36.348 12.672Z" fill="black"/>
</svg>
